<svg width="237" height="58" viewBox="0 0 237 58" fill="none" xmlns="http://www.w3.org/2000/svg">
<path d="M42.2635 42.4034C43.2252 43.5339 43.096 45.2462 41.8544 46.0595C40.0532 47.2393 38.0806 48.1446 36.0011 48.741C33.0581 49.5849 29.9688 49.7906 26.9399 49.3443C23.911 48.898 21.0123 47.8099 18.4379 46.1529C16.6187 44.982 14.9912 43.5462 13.6068 41.897C12.6525 40.7601 13.0227 39.0834 14.2697 38.2783V38.2783C15.5166 37.4732 17.1654 37.8506 18.1662 38.9467C19.1034 39.9731 20.1719 40.8768 21.347 41.6332C23.2778 42.8759 25.4518 43.692 27.7234 44.0267C29.9951 44.3615 32.3121 44.2072 34.5193 43.5742C35.8626 43.189 37.1464 42.6319 38.3398 41.9194C39.6142 41.1586 41.3018 41.2728 42.2635 42.4034V42.4034Z" fill="#4FB8E5"/>
<circle cx="18.8826" cy="23.8825" r="7" transform="rotate(2.58394 18.8826 23.8825)" fill="#7C63FF"/>
<circle cx="29.0742" cy="39.074" r="6.5" fill="#4FB8E5"/>
<path d="M16.3352 40.8512C15.2034 41.8115 13.4913 41.6801 12.6796 40.4374C10.6344 37.306 9.43257 33.6808 9.21584 29.916C8.94739 25.2528 10.2049 20.629 12.7981 16.7441C15.3913 12.8591 19.1791 9.92433 23.5886 8.38364C27.1486 7.13977 30.9575 6.85922 34.6338 7.54697C36.0928 7.81991 36.8708 9.35072 36.4181 10.7643V10.7643C35.9654 12.1778 34.4517 12.9325 32.9826 12.7206C30.4328 12.3528 27.8182 12.5995 25.3615 13.4578C22.0544 14.6133 19.2135 16.8144 17.2686 19.7282C15.3237 22.6419 14.3806 26.1097 14.582 29.6071C14.7315 32.2051 15.5065 34.7144 16.8242 36.9281C17.5834 38.2035 17.467 39.891 16.3352 40.8512V40.8512Z" fill="#7C63FF"/>
<path d="M72.2958 29.7704H59.3808V41.1804H56.1958V16.1204H59.3808V26.9354H72.2958V16.1204H75.4808V41.1804H72.2958V29.7704ZM95.7803 33.0254H82.5153C82.5386 34.5654 82.8653 35.7904 83.4953 36.7004C84.4986 38.1704 85.9453 38.9054 87.8353 38.9054C90.1686 38.9054 91.7436 37.7971 92.5603 35.5804H95.4303C95.057 37.4704 94.1936 38.9404 92.8403 39.9904C91.487 41.0404 89.7836 41.5654 87.7303 41.5654C85.0003 41.5654 82.912 40.6321 81.4653 38.7654C80.182 37.1321 79.5403 34.9737 79.5403 32.2904C79.5403 29.1871 80.3803 26.7721 82.0603 25.0454C83.5303 23.5521 85.432 22.8054 87.7653 22.8054C89.4686 22.8054 90.962 23.2137 92.2453 24.0304C93.552 24.8471 94.4853 25.9671 95.0453 27.3904C95.5353 28.6037 95.7803 30.4471 95.7803 32.9204V33.0254ZM92.7003 30.6804C92.7003 29.1171 92.2336 27.8571 91.3003 26.9004C90.3903 25.9204 89.212 25.4304 87.7653 25.4304C86.2953 25.4304 85.0936 25.9087 84.1603 26.8654C83.2503 27.7987 82.737 29.0704 82.6203 30.6804H92.7003ZM115.657 38.7654V41.0754C114.863 41.3554 114.245 41.4954 113.802 41.4954C111.935 41.4954 110.92 40.6437 110.757 38.9404C109.473 40.6904 107.432 41.5654 104.632 41.5654C102.695 41.5654 101.19 41.0287 100.117 39.9554C99.1834 39.0221 98.7167 37.8204 98.7167 36.3504C98.7167 34.6704 99.3117 33.3754 100.502 32.4654C101.178 31.9521 102.59 31.4504 104.737 30.9604L110.617 29.6304L110.652 28.1254C110.652 26.3287 109.298 25.4304 106.592 25.4304C104.002 25.4304 102.613 26.4804 102.427 28.5804H99.5217C99.5917 26.9937 99.9884 25.7804 100.712 24.9404C101.948 23.5171 103.955 22.8054 106.732 22.8054C111.235 22.8054 113.487 24.4387 113.487 27.7054V37.7504C113.487 38.6371 113.872 39.0804 114.642 39.0804C114.735 39.0804 114.98 39.0104 115.377 38.8704C115.517 38.8237 115.61 38.7887 115.657 38.7654ZM110.652 31.9754L106.032 33.1654C104.375 33.5854 103.232 34.0171 102.602 34.4604C101.995 34.9037 101.692 35.5221 101.692 36.3154C101.692 38.1587 102.882 39.0804 105.262 39.0804C106.942 39.0804 108.365 38.5321 109.532 37.4354C110.278 36.7587 110.652 35.9887 110.652 35.1254V31.9754ZM121.603 16.1204V41.1804H118.733V16.1204H121.603ZM133.46 23.1904V25.5004H129.785V37.4704C129.785 37.8904 129.925 38.2521 130.205 38.5554C130.509 38.8354 130.894 38.9754 131.36 38.9754C131.804 38.9754 132.48 38.8704 133.39 38.6604L133.705 41.1804C132.259 41.4371 131.162 41.5654 130.415 41.5654C128.105 41.5654 126.95 40.6204 126.95 38.7304V25.5004H124.5V23.1904H126.95V19.5154L129.785 18.2204V23.1904H133.46ZM136.816 16.1204H139.651V25.7104C140.514 24.6371 141.378 23.8904 142.241 23.4704C143.104 23.0271 144.178 22.8054 145.461 22.8054C147.211 22.8054 148.588 23.2487 149.591 24.1354C150.594 24.9987 151.096 26.1887 151.096 27.7054V41.1804H148.261V28.8604C148.261 27.6004 147.876 26.6787 147.106 26.0954C146.383 25.5587 145.531 25.2904 144.551 25.2904C143.081 25.2904 141.891 25.8387 140.981 26.9354C140.094 28.0321 139.651 29.4904 139.651 31.3104V41.1804H136.816V16.1204ZM173.982 23.3304H170.972C170.902 20.0637 168.814 18.4304 164.707 18.4304C163.027 18.4304 161.674 18.8154 160.647 19.5854C159.621 20.3321 159.107 21.3237 159.107 22.5604C159.107 23.4937 159.411 24.2404 160.017 24.8004C160.647 25.3371 161.721 25.8037 163.237 26.2004L169.187 27.7404C172.967 28.7437 174.857 30.8437 174.857 34.0404C174.857 36.3504 173.936 38.2287 172.092 39.6754C170.459 40.9354 168.114 41.5654 165.057 41.5654C161.184 41.5654 158.372 40.3987 156.622 38.0654C155.689 36.8054 155.199 35.1137 155.152 32.9904H158.162V33.0604C158.162 34.8804 158.781 36.2921 160.017 37.2954C161.277 38.2754 163.027 38.7654 165.267 38.7654C167.321 38.7654 168.849 38.4271 169.852 37.7504C171.042 36.9337 171.637 35.7904 171.637 34.3204C171.637 32.4537 170.109 31.1354 167.052 30.3654L160.822 28.7554C157.556 27.9154 155.922 25.9904 155.922 22.9804C155.922 20.6004 156.821 18.7571 158.617 17.4504C160.181 16.3071 162.246 15.7354 164.812 15.7354C168.452 15.7354 171.054 16.7971 172.617 18.9204C173.527 20.1571 173.982 21.4987 173.982 22.9454C173.982 23.0154 173.982 23.1437 173.982 23.3304ZM194.817 38.7654V41.0754C194.024 41.3554 193.405 41.4954 192.962 41.4954C191.095 41.4954 190.08 40.6437 189.917 38.9404C188.634 40.6904 186.592 41.5654 183.792 41.5654C181.855 41.5654 180.35 41.0287 179.277 39.9554C178.344 39.0221 177.877 37.8204 177.877 36.3504C177.877 34.6704 178.472 33.3754 179.662 32.4654C180.339 31.9521 181.75 31.4504 183.897 30.9604L189.777 29.6304L189.812 28.1254C189.812 26.3287 188.459 25.4304 185.752 25.4304C183.162 25.4304 181.774 26.4804 181.587 28.5804H178.682C178.752 26.9937 179.149 25.7804 179.872 24.9404C181.109 23.5171 183.115 22.8054 185.892 22.8054C190.395 22.8054 192.647 24.4387 192.647 27.7054V37.7504C192.647 38.6371 193.032 39.0804 193.802 39.0804C193.895 39.0804 194.14 39.0104 194.537 38.8704C194.677 38.8237 194.77 38.7887 194.817 38.7654ZM189.812 31.9754L185.192 33.1654C183.535 33.5854 182.392 34.0171 181.762 34.4604C181.155 34.9037 180.852 35.5221 180.852 36.3154C180.852 38.1587 182.042 39.0804 184.422 39.0804C186.102 39.0804 187.525 38.5321 188.692 37.4354C189.439 36.7587 189.812 35.9887 189.812 35.1254V31.9754ZM209.688 23.1904H212.348V38.2404C212.348 42.1371 211.718 44.8437 210.458 46.3604C209.198 47.9004 207.133 48.6704 204.263 48.6704C202.023 48.6704 200.273 48.1337 199.013 47.0604C197.893 46.1037 197.263 44.8321 197.123 43.2454H200.063C200.203 44.1787 200.553 44.8671 201.113 45.3104C201.93 45.9404 203.027 46.2554 204.403 46.2554C206.27 46.2554 207.6 45.6954 208.393 44.5754C209.07 43.6187 209.408 41.9854 209.408 39.6754V38.5204C207.915 40.5504 206.118 41.5654 204.018 41.5654C201.965 41.5654 200.227 40.7954 198.803 39.2554C197.287 37.5987 196.528 35.3354 196.528 32.4654C196.528 29.3854 197.322 26.9354 198.908 25.1154C200.308 23.5754 202.07 22.8054 204.193 22.8054C206.48 22.8054 208.312 23.8321 209.688 25.8854V23.1904ZM204.508 25.4304C202.968 25.4304 201.743 26.0487 200.833 27.2854C199.947 28.4987 199.503 30.1671 199.503 32.2904C199.503 34.5071 200.017 36.1987 201.043 37.3654C201.907 38.3921 203.073 38.9054 204.543 38.9054C206.083 38.9054 207.273 38.3221 208.113 37.1554C208.977 35.9887 209.408 34.3671 209.408 32.2904C209.408 30.0037 208.918 28.2537 207.938 27.0404C207.075 25.9671 205.932 25.4304 204.508 25.4304ZM232.26 33.0254H218.995C219.018 34.5654 219.345 35.7904 219.975 36.7004C220.978 38.1704 222.425 38.9054 224.315 38.9054C226.648 38.9054 228.223 37.7971 229.04 35.5804H231.91C231.536 37.4704 230.673 38.9404 229.32 39.9904C227.966 41.0404 226.263 41.5654 224.21 41.5654C221.48 41.5654 219.391 40.6321 217.945 38.7654C216.661 37.1321 216.02 34.9737 216.02 32.2904C216.02 29.1871 216.86 26.7721 218.54 25.0454C220.01 23.5521 221.911 22.8054 224.245 22.8054C225.948 22.8054 227.441 23.2137 228.725 24.0304C230.031 24.8471 230.965 25.9671 231.525 27.3904C232.015 28.6037 232.26 30.4471 232.26 32.9204V33.0254ZM229.18 30.6804C229.18 29.1171 228.713 27.8571 227.78 26.9004C226.87 25.9204 225.691 25.4304 224.245 25.4304C222.775 25.4304 221.573 25.9087 220.64 26.8654C219.73 27.7987 219.216 29.0704 219.1 30.6804H229.18Z" fill="black"/>
</svg>
