<svg width="193" height="36" viewBox="0 0 193 36" fill="none" xmlns="http://www.w3.org/2000/svg">
<path d="M44.924 6.786H47.394V15.002H56.338V6.786H58.808V26H56.338V17.29H47.394V26H44.924V6.786ZM76.4527 21.45C76.21 22.178 75.8547 22.8453 75.3867 23.452C74.936 24.0413 74.4073 24.5527 73.8007 24.986C73.194 25.4193 72.5267 25.7573 71.7987 26C71.088 26.2253 70.3427 26.338 69.5627 26.338C68.5053 26.338 67.5087 26.1473 66.5727 25.766C65.654 25.3673 64.848 24.83 64.1547 24.154C63.4613 23.478 62.9153 22.6893 62.5167 21.788C62.1353 20.8693 61.9447 19.8813 61.9447 18.824C61.9447 17.784 62.1353 16.8133 62.5167 15.912C62.9153 15.0107 63.444 14.222 64.1027 13.546C64.7787 12.87 65.5673 12.3413 66.4687 11.96C67.37 11.5787 68.3407 11.388 69.3807 11.388C70.4207 11.388 71.3913 11.5873 72.2927 11.986C73.2113 12.3673 74.0087 12.896 74.6847 13.572C75.3607 14.2307 75.8893 15.0107 76.2707 15.912C76.6693 16.8133 76.8687 17.784 76.8687 18.824C76.8687 19.1707 76.834 19.4913 76.7647 19.786H64.4927C64.5447 20.41 64.7093 20.982 64.9867 21.502C65.2813 22.022 65.6453 22.4813 66.0787 22.88C66.5293 23.2613 67.0493 23.5647 67.6387 23.79C68.228 23.998 68.852 24.102 69.5107 24.102C70.464 24.102 71.322 23.868 72.0847 23.4C72.8647 22.932 73.4627 22.282 73.8787 21.45H76.4527ZM74.3987 17.628C74.104 16.3627 73.5147 15.3833 72.6307 14.69C71.764 13.9793 70.6893 13.624 69.4067 13.624C68.1587 13.624 67.0927 13.988 66.2087 14.716C65.3247 15.4267 64.7527 16.3973 64.4927 17.628H74.3987ZM78.9625 18.902C78.9625 17.8273 79.1445 16.8307 79.5085 15.912C79.8898 14.9933 80.4098 14.2047 81.0685 13.546C81.7445 12.87 82.5331 12.3413 83.4345 11.96C84.3531 11.5787 85.3411 11.388 86.3985 11.388C87.5945 11.388 88.6085 11.596 89.4405 12.012C90.2898 12.428 91.0525 13.104 91.7285 14.04V11.726H94.0685V26H91.7285V23.712C90.9831 24.648 90.2031 25.324 89.3885 25.74C88.5911 26.1387 87.6205 26.338 86.4765 26.338C85.4018 26.338 84.4051 26.156 83.4865 25.792C82.5678 25.4107 81.7705 24.8907 81.0945 24.232C80.4358 23.5733 79.9158 22.7933 79.5345 21.892C79.1531 20.9733 78.9625 19.9767 78.9625 18.902ZM81.4325 18.876C81.4325 19.6213 81.5625 20.3147 81.8225 20.956C82.0998 21.58 82.4725 22.126 82.9405 22.594C83.4085 23.062 83.9545 23.4347 84.5785 23.712C85.2198 23.972 85.9045 24.102 86.6325 24.102C87.3605 24.102 88.0278 23.972 88.6345 23.712C89.2585 23.4347 89.7958 23.062 90.2465 22.594C90.6971 22.126 91.0438 21.5713 91.2865 20.93C91.5465 20.2887 91.6765 19.5953 91.6765 18.85C91.6765 18.0873 91.5465 17.394 91.2865 16.77C91.0265 16.1287 90.6625 15.574 90.1945 15.106C89.7438 14.638 89.1978 14.274 88.5565 14.014C87.9325 13.754 87.2478 13.624 86.5025 13.624C85.7918 13.624 85.1245 13.7627 84.5005 14.04C83.8938 14.3 83.3565 14.6727 82.8885 15.158C82.4378 15.626 82.0825 16.1807 81.8225 16.822C81.5625 17.4633 81.4325 18.148 81.4325 18.876ZM97.4416 6.786H99.8856V26H97.4416V6.786ZM104.64 13.936H102.014V11.726H104.64V6.786H107.058V11.726H109.892V13.936H107.058V26H104.64V13.936ZM112.028 6.786H114.472V13.286C115.495 12.0033 116.899 11.362 118.684 11.362C120.643 11.362 122.125 11.9427 123.13 13.104C124.153 14.2653 124.664 15.964 124.664 18.2V26H122.246V18.46C122.246 15.236 120.955 13.624 118.372 13.624C117.107 13.624 116.136 14.0313 115.46 14.846C114.801 15.6433 114.472 16.8133 114.472 18.356V26H112.028V6.786ZM129.642 20.592C129.763 21.684 130.127 22.5333 130.734 23.14C131.34 23.7293 132.155 24.024 133.178 24.024C133.68 24.024 134.14 23.946 134.556 23.79C134.972 23.6167 135.327 23.3827 135.622 23.088C135.916 22.7933 136.15 22.4467 136.324 22.048C136.497 21.632 136.584 21.1813 136.584 20.696C136.584 20.1587 136.488 19.6993 136.298 19.318C136.107 18.9367 135.83 18.5987 135.466 18.304C135.102 18.0093 134.651 17.7493 134.114 17.524C133.594 17.2987 132.996 17.082 132.32 16.874C130.673 16.3713 129.486 15.7127 128.758 14.898C128.047 14.0833 127.692 13.026 127.692 11.726C127.692 10.9633 127.83 10.2613 128.108 9.62C128.385 8.97867 128.758 8.424 129.226 7.956C129.711 7.488 130.283 7.124 130.942 6.864C131.6 6.58667 132.32 6.448 133.1 6.448C133.897 6.448 134.625 6.578 135.284 6.838C135.942 7.08067 136.514 7.436 137 7.904C137.485 8.35467 137.866 8.90933 138.144 9.568C138.421 10.2093 138.568 10.9287 138.586 11.726H136.038C135.968 10.8073 135.665 10.088 135.128 9.568C134.608 9.03067 133.923 8.762 133.074 8.762C132.224 8.762 131.531 9.03933 130.994 9.594C130.456 10.1313 130.188 10.816 130.188 11.648C130.188 12.4107 130.448 13.026 130.968 13.494C131.505 13.962 132.432 14.404 133.75 14.82C134.703 15.1147 135.518 15.444 136.194 15.808C136.87 16.1547 137.416 16.5533 137.832 17.004C138.265 17.4547 138.577 17.966 138.768 18.538C138.958 19.11 139.054 19.76 139.054 20.488C139.054 21.32 138.906 22.0913 138.612 22.802C138.317 23.5127 137.901 24.1367 137.364 24.674C136.844 25.194 136.22 25.6013 135.492 25.896C134.781 26.1907 134.001 26.338 133.152 26.338C132.285 26.338 131.488 26.1993 130.76 25.922C130.032 25.6447 129.399 25.2547 128.862 24.752C128.342 24.2493 127.917 23.6513 127.588 22.958C127.276 22.2473 127.094 21.4587 127.042 20.592H129.642ZM140.895 18.902C140.895 17.8273 141.077 16.8307 141.441 15.912C141.823 14.9933 142.343 14.2047 143.001 13.546C143.677 12.87 144.466 12.3413 145.367 11.96C146.286 11.5787 147.274 11.388 148.331 11.388C149.527 11.388 150.541 11.596 151.373 12.012C152.223 12.428 152.985 13.104 153.661 14.04V11.726H156.001V26H153.661V23.712C152.916 24.648 152.136 25.324 151.321 25.74C150.524 26.1387 149.553 26.338 148.409 26.338C147.335 26.338 146.338 26.156 145.419 25.792C144.501 25.4107 143.703 24.8907 143.027 24.232C142.369 23.5733 141.849 22.7933 141.467 21.892C141.086 20.9733 140.895 19.9767 140.895 18.902ZM143.365 18.876C143.365 19.6213 143.495 20.3147 143.755 20.956C144.033 21.58 144.405 22.126 144.873 22.594C145.341 23.062 145.887 23.4347 146.511 23.712C147.153 23.972 147.837 24.102 148.565 24.102C149.293 24.102 149.961 23.972 150.567 23.712C151.191 23.4347 151.729 23.062 152.179 22.594C152.63 22.126 152.977 21.5713 153.219 20.93C153.479 20.2887 153.609 19.5953 153.609 18.85C153.609 18.0873 153.479 17.394 153.219 16.77C152.959 16.1287 152.595 15.574 152.127 15.106C151.677 14.638 151.131 14.274 150.489 14.014C149.865 13.754 149.181 13.624 148.435 13.624C147.725 13.624 147.057 13.7627 146.433 14.04C145.827 14.3 145.289 14.6727 144.821 15.158C144.371 15.626 144.015 16.1807 143.755 16.822C143.495 17.4633 143.365 18.148 143.365 18.876ZM161.766 26.676C162.078 27.1787 162.39 27.6033 162.702 27.95C163.032 28.314 163.378 28.6087 163.742 28.834C164.124 29.0593 164.531 29.2153 164.964 29.302C165.415 29.406 165.909 29.458 166.446 29.458C168.024 29.458 169.22 29.016 170.034 28.132C170.866 27.248 171.282 25.948 171.282 24.232V23.452C170.676 24.44 169.956 25.168 169.124 25.636C168.292 26.104 167.278 26.338 166.082 26.338C165.042 26.338 164.072 26.1473 163.17 25.766C162.286 25.3847 161.515 24.8647 160.856 24.206C160.215 23.53 159.704 22.7413 159.322 21.84C158.958 20.9213 158.776 19.9333 158.776 18.876C158.776 17.8013 158.958 16.8047 159.322 15.886C159.686 14.9673 160.189 14.1787 160.83 13.52C161.472 12.844 162.226 12.324 163.092 11.96C163.976 11.5787 164.938 11.388 165.978 11.388C167.14 11.388 168.145 11.596 168.994 12.012C169.861 12.428 170.624 13.0953 171.282 14.014V11.726H173.674V23.4C173.674 28.8947 171.265 31.642 166.446 31.642C164.661 31.642 163.144 31.2173 161.896 30.368C160.648 29.5187 159.756 28.288 159.218 26.676H161.766ZM166.238 24.102C166.966 24.102 167.634 23.972 168.24 23.712C168.847 23.4347 169.367 23.062 169.8 22.594C170.251 22.126 170.598 21.5713 170.84 20.93C171.1 20.2713 171.23 19.552 171.23 18.772C171.23 18.0093 171.1 17.316 170.84 16.692C170.58 16.068 170.225 15.5307 169.774 15.08C169.324 14.612 168.778 14.2567 168.136 14.014C167.512 13.754 166.828 13.624 166.082 13.624C165.389 13.624 164.748 13.754 164.158 14.014C163.569 14.274 163.058 14.638 162.624 15.106C162.191 15.5567 161.853 16.1027 161.61 16.744C161.368 17.368 161.246 18.0613 161.246 18.824C161.246 19.5867 161.368 20.2973 161.61 20.956C161.87 21.5973 162.217 22.152 162.65 22.62C163.101 23.088 163.63 23.452 164.236 23.712C164.843 23.972 165.51 24.102 166.238 24.102ZM190.962 21.45C190.72 22.178 190.364 22.8453 189.896 23.452C189.446 24.0413 188.917 24.5527 188.31 24.986C187.704 25.4193 187.036 25.7573 186.308 26C185.598 26.2253 184.852 26.338 184.072 26.338C183.015 26.338 182.018 26.1473 181.082 25.766C180.164 25.3673 179.358 24.83 178.664 24.154C177.971 23.478 177.425 22.6893 177.026 21.788C176.645 20.8693 176.454 19.8813 176.454 18.824C176.454 17.784 176.645 16.8133 177.026 15.912C177.425 15.0107 177.954 14.222 178.612 13.546C179.288 12.87 180.077 12.3413 180.978 11.96C181.88 11.5787 182.85 11.388 183.89 11.388C184.93 11.388 185.901 11.5873 186.802 11.986C187.721 12.3673 188.518 12.896 189.194 13.572C189.87 14.2307 190.399 15.0107 190.78 15.912C191.179 16.8133 191.378 17.784 191.378 18.824C191.378 19.1707 191.344 19.4913 191.274 19.786H179.002C179.054 20.41 179.219 20.982 179.496 21.502C179.791 22.022 180.155 22.4813 180.588 22.88C181.039 23.2613 181.559 23.5647 182.148 23.79C182.738 23.998 183.362 24.102 184.02 24.102C184.974 24.102 185.832 23.868 186.594 23.4C187.374 22.932 187.972 22.282 188.388 21.45H190.962ZM188.908 17.628C188.614 16.3627 188.024 15.3833 187.14 14.69C186.274 13.9793 185.199 13.624 183.916 13.624C182.668 13.624 181.602 13.988 180.718 14.716C179.834 15.4267 179.262 16.3973 179.002 17.628H188.908Z" fill="white"/>
<mask id="mask0_369_1806" style="mask-type:alpha" maskUnits="userSpaceOnUse" x="0" y="0" width="34" height="34">
<rect width="34" height="34" fill="#D9D9D9"/>
</mask>
<g mask="url(#mask0_369_1806)">
<path d="M31.5024 23.4979C32.5088 23.9927 32.9337 25.2186 32.3173 26.1554C31.0096 28.143 29.2764 29.8263 27.2337 31.0779C24.6117 32.6845 21.5875 33.5138 18.5127 33.4696C15.438 33.4253 12.4389 32.5091 9.86427 30.8277C7.85848 29.5178 6.17445 27.7852 4.92455 25.7609C4.33539 24.8067 4.79546 23.5935 5.81569 23.128C6.83592 22.6624 8.02731 23.1248 8.65571 24.0536C9.55941 25.3894 10.7233 26.5383 12.0849 27.4275C14.0159 28.6886 16.2652 29.3756 18.5712 29.4089C20.8773 29.4421 23.1455 28.8201 25.112 27.6151C26.4986 26.7655 27.6951 25.6506 28.6369 24.3414C29.2918 23.4311 30.496 23.0032 31.5024 23.4979Z" fill="#FFC849"/>
<circle cx="9.82795" cy="13.5921" r="5.28889" fill="#A4E685"/>
<circle cx="18.1404" cy="26.4427" r="5.28889" fill="#FFC849"/>
<path d="M7.80673 26.3745C6.98518 27.1379 5.6884 27.097 5.03345 26.1867C3.68186 24.3081 2.74254 22.1557 2.28772 19.8706C1.70028 16.9193 1.94419 13.8628 2.99225 11.0419C4.0403 8.22107 5.85131 5.74679 8.22332 3.895C10.0598 2.46127 12.1767 1.44432 14.427 0.903999C15.5175 0.642171 16.5263 1.45795 16.6501 2.57254C16.774 3.68712 15.9628 4.67462 14.8842 4.98165C13.3796 5.40991 11.9654 6.12574 10.7224 7.09613C8.94339 8.48497 7.58514 10.3407 6.79909 12.4563C6.01305 14.5719 5.83012 16.8643 6.2707 19.0778C6.57854 20.6244 7.1823 22.09 8.04219 23.3968C8.65865 24.3336 8.62829 25.6112 7.80673 26.3745Z" fill="#A4E685"/>
</g>
</svg>
